<?xml version="1.0" encoding="UTF-8"?>
<svg width="127.76mm" height="127.76mm" version="1.1" viewBox="0 0 127.76 127.76" xmlns="http://www.w3.org/2000/svg">
 <g transform="translate(-39.31 -80.798)">
  <circle cx="103.19" cy="144.68" r="63.878" fill="#b4b4b4"/>
  <g transform="matrix(.6609 0 0 .6609 -119.68 -200.06)" fill="#fff" style="font-feature-settings:normal;font-variant-caps:normal;font-variant-ligatures:normal;font-variant-numeric:normal" aria-label="@">
   <path d="m349.15 543.38h-0.50042q-5.8383 15.93-21.185 15.93-11.51 0-18.599-8.3404-7.0059-8.3404-7.0059-23.103 0-19.099 9.7582-31.026 9.7582-12.01 23.52-12.01 12.427 0 15.597 9.7582h0.33361l0.83404-8.257h18.766q-3.7532 35.53-3.7532 46.456 0 11.677 6.3387 11.677 6.6723 0 11.009-8.8408 4.337-8.8408 4.337-23.103 0-19.516-12.427-31.944-12.427-12.511-34.696-12.511-23.853 0-39.7 16.681-15.763 16.597-15.763 40.534 0 23.186 13.928 36.531 14.012 13.345 38.616 13.345 18.766 0 34.362-7.1727v15.93q-14.262 6.0885-36.698 6.0885-30.776 0-50.126-17.598-19.266-17.682-19.266-47.457 0-30.359 20.601-51.043 20.601-20.684 53.045-20.684 30.025 0 48.541 16.097 18.599 16.014 18.599 42.286 0 21.602-11.343 34.696-11.343 13.011-28.107 13.011-8.257 0-13.428-4.4204-5.171-4.4204-5.5881-11.51zm-11.093-44.037q-7.5063 0-12.26 8.5906-4.6706 8.5072-4.6706 19.767 0 8.0068 3.1693 12.511 3.2528 4.4204 8.3404 4.4204 7.84 0 12.344-8.4238 4.5038-8.4238 4.5038-22.519 0-6.6723-3.1693-10.509-3.0859-3.8366-8.257-3.8366z" style=""/>
  </g>
 </g>
</svg>
